<svg width="74" height="64" viewBox="0 0 74 64" fill="none" xmlns="http://www.w3.org/2000/svg">
<rect width="74" height="64" rx="2" fill="#FDFDFD"/>
<path d="M8.16 17.08H25.32V20.8H12.04V30.04H23.68V33.72H12.04V46H8.16V17.08ZM40.9947 46C40.888 46 40.708 46 40.4547 46C40.2147 46 39.9614 46 39.6947 46C39.4414 46 39.2214 46 39.0347 46C38.848 46 38.7547 46 38.7547 46L31.8147 36.82C31.6947 36.6333 31.5547 36.4 31.3947 36.12C31.2347 35.84 31.0947 35.5333 30.9747 35.2C30.868 34.8533 30.8147 34.5 30.8147 34.14C30.8147 33.5667 30.9547 33.0333 31.2347 32.54C31.5147 32.0333 31.9147 31.6267 32.4347 31.32C32.968 31.0133 33.6147 30.86 34.3747 30.86C35.1614 30.86 35.8614 31.0133 36.4747 31.32C37.1014 31.6267 37.6147 31.9867 38.0147 32.4L37.0347 33.7C36.6347 33.3267 36.2347 33.0333 35.8347 32.82C35.448 32.5933 35.0614 32.48 34.6747 32.48C34.088 32.48 33.628 32.66 33.2947 33.02C32.9747 33.3667 32.8147 33.7867 32.8147 34.28C32.8147 34.52 32.8614 34.7667 32.9547 35.02C33.0614 35.2733 33.1614 35.4867 33.2547 35.66C33.3614 35.8333 33.428 35.9467 33.4547 36L40.9947 46ZM33.6747 39.04C33.3014 39.04 32.9347 39.1133 32.5747 39.26C32.2147 39.4067 31.8947 39.6067 31.6147 39.86C31.3347 40.1133 31.108 40.4133 30.9347 40.76C30.7747 41.0933 30.6947 41.4533 30.6947 41.84C30.6947 42.36 30.828 42.82 31.0947 43.22C31.3747 43.6067 31.7414 43.9133 32.1947 44.14C32.6614 44.3533 33.168 44.46 33.7147 44.46C34.2214 44.46 34.668 44.3867 35.0547 44.24C35.4414 44.08 35.7747 43.8733 36.0547 43.62C36.3347 43.3533 36.5414 43.0667 36.6747 42.76L37.9147 43.84C37.5547 44.5067 36.9947 45.0667 36.2347 45.52C35.488 45.9733 34.568 46.2 33.4747 46.2C32.568 46.2 31.7547 46.0133 31.0347 45.64C30.3147 45.2667 29.7414 44.76 29.3147 44.12C28.9014 43.48 28.6947 42.7533 28.6947 41.94C28.6947 41.3133 28.8347 40.7333 29.1147 40.2C29.3947 39.6667 29.768 39.2067 30.2347 38.82C30.7147 38.42 31.2414 38.1067 31.8147 37.88C32.4014 37.6533 33.008 37.5333 33.6347 37.52L33.6747 39.04ZM38.6947 37.52H40.4747L38.1347 43.52L36.7347 42.64L38.6947 37.52ZM67.4469 43.84C66.9669 44.16 66.3135 44.52 65.4869 44.92C64.6602 45.32 63.6869 45.6533 62.5669 45.92C61.4735 46.1867 60.2735 46.32 58.9669 46.32C56.7269 46.2933 54.7002 45.8933 52.8869 45.12C51.1002 44.3467 49.5802 43.2933 48.3269 41.96C47.0735 40.6267 46.1002 39.0933 45.4069 37.36C44.7402 35.6 44.4069 33.7333 44.4069 31.76C44.4069 29.6 44.7535 27.6133 45.4469 25.8C46.1669 23.96 47.1669 22.3733 48.4469 21.04C49.7269 19.68 51.2335 18.6267 52.9669 17.88C54.7269 17.1333 56.6469 16.76 58.7269 16.76C60.4602 16.76 62.0335 17 63.4469 17.48C64.8602 17.9333 66.0735 18.48 67.0869 19.12L65.5269 22.72C64.7269 22.1867 63.7535 21.68 62.6069 21.2C61.4869 20.72 60.2335 20.48 58.8469 20.48C57.4335 20.48 56.1002 20.76 54.8469 21.32C53.5935 21.88 52.4869 22.6667 51.5269 23.68C50.5669 24.6933 49.8069 25.88 49.2469 27.24C48.7135 28.5733 48.4469 30.0133 48.4469 31.56C48.4469 33.1333 48.6869 34.6 49.1669 35.96C49.6735 37.2933 50.3802 38.4533 51.2869 39.44C52.2202 40.4267 53.3402 41.2 54.6469 41.76C55.9535 42.32 57.4202 42.6 59.0469 42.6C60.5135 42.6 61.8202 42.3733 62.9669 41.92C64.1135 41.4667 65.0602 40.96 65.8069 40.4L67.4469 43.84Z" fill="#171717"/>
</svg>
