<svg width="66" height="33" viewBox="0 0 66 33" fill="none" xmlns="http://www.w3.org/2000/svg">
<rect x="15" y="20" width="51" height="7" rx="2" fill="#DA942C"/>
<path d="M3.48 2.82H15.12V3.81H4.5V13.17H13.95V14.13H4.5V24H3.48V2.82ZM35.7366 24C35.6966 24 35.6066 24 35.4666 24C35.3466 24 35.2166 24 35.0766 24C34.9366 24 34.8066 24 34.6866 24C34.5866 24 34.5366 24 34.5366 24L23.2566 9.36C23.0966 9.08 22.9266 8.78 22.7466 8.46C22.5866 8.12 22.4566 7.76 22.3566 7.38C22.2566 7 22.2066 6.58 22.2066 6.12C22.2066 5.22 22.4166 4.42 22.8366 3.72C23.2566 3.02 23.8266 2.48 24.5466 2.1C25.2866 1.7 26.1066 1.5 27.0066 1.5C27.8866 1.5 28.6966 1.66 29.4366 1.98C30.1966 2.28 30.8366 2.62 31.3566 3L30.8466 3.72C30.2466 3.32 29.6366 3 29.0166 2.76C28.3966 2.5 27.7766 2.37 27.1566 2.37C26.0366 2.37 25.1066 2.72 24.3666 3.42C23.6266 4.1 23.2566 4.98 23.2566 6.06C23.2566 6.56 23.3266 7.03 23.4666 7.47C23.6066 7.89 23.7466 8.23 23.8866 8.49C24.0466 8.75 24.1366 8.89 24.1566 8.91L35.7366 24ZM26.2566 13.05C25.5766 13.05 24.8966 13.18 24.2166 13.44C23.5366 13.7 22.9166 14.06 22.3566 14.52C21.7966 14.98 21.3466 15.53 21.0066 16.17C20.6666 16.81 20.4966 17.52 20.4966 18.3C20.4966 19.3 20.7566 20.17 21.2766 20.91C21.8166 21.65 22.5266 22.23 23.4066 22.65C24.2866 23.07 25.2566 23.28 26.3166 23.28C27.2166 23.28 28.0466 23.14 28.8066 22.86C29.5866 22.56 30.2566 22.17 30.8166 21.69C31.3966 21.21 31.8166 20.69 32.0766 20.13L32.7066 20.88C32.2066 21.84 31.3666 22.64 30.1866 23.28C29.0266 23.9 27.7066 24.21 26.2266 24.21C24.8866 24.21 23.7066 23.95 22.6866 23.43C21.6666 22.89 20.8566 22.18 20.2566 21.3C19.6766 20.4 19.3866 19.4 19.3866 18.3C19.3866 17.44 19.5666 16.65 19.9266 15.93C20.3066 15.19 20.8166 14.55 21.4566 14.01C22.1166 13.45 22.8466 13.02 23.6466 12.72C24.4466 12.4 25.2766 12.22 26.1366 12.18L26.2566 13.05ZM35.0466 12.18H36.0966L32.8266 20.76L32.1066 20.1L35.0466 12.18ZM56.9782 22.65C56.4982 22.95 55.9582 23.22 55.3582 23.46C54.7582 23.7 54.1082 23.89 53.4082 24.03C52.7282 24.17 52.0082 24.24 51.2482 24.24C49.6282 24.24 48.1582 23.96 46.8382 23.4C45.5382 22.84 44.4182 22.07 43.4782 21.09C42.5382 20.09 41.8082 18.95 41.2882 17.67C40.7882 16.37 40.5382 15 40.5382 13.56C40.5382 12.02 40.8082 10.59 41.3482 9.27C41.9082 7.93 42.6782 6.76 43.6582 5.76C44.6382 4.76 45.7782 3.98 47.0782 3.42C48.3782 2.86 49.7782 2.58 51.2782 2.58C52.3382 2.58 53.3382 2.73 54.2782 3.03C55.2382 3.31 56.1282 3.69 56.9482 4.17L56.4982 5.07C55.7582 4.63 54.9482 4.27 54.0682 3.99C53.1882 3.71 52.2582 3.57 51.2782 3.57C49.9582 3.57 48.7082 3.83 47.5282 4.35C46.3482 4.85 45.3182 5.56 44.4382 6.48C43.5582 7.38 42.8582 8.44 42.3382 9.66C41.8382 10.86 41.5882 12.15 41.5882 13.53C41.5882 14.85 41.8082 16.1 42.2482 17.28C42.7082 18.46 43.3582 19.5 44.1982 20.4C45.0582 21.28 46.0782 21.98 47.2582 22.5C48.4382 23 49.7682 23.25 51.2482 23.25C52.2482 23.25 53.1882 23.11 54.0682 22.83C54.9482 22.55 55.7482 22.19 56.4682 21.75L56.9782 22.65Z" fill="#171717"/>
</svg>
