<svg width="16" height="51" viewBox="0 0 16 51" fill="none" xmlns="http://www.w3.org/2000/svg">
<path d="M9 1C9 0.447715 8.55228 -2.41411e-08 8 0C7.44772 2.41411e-08 7 0.447715 7 1L9 1ZM7.2929 50.7071C7.68342 51.0976 8.31658 51.0976 8.70711 50.7071L15.0711 44.3431C15.4616 43.9526 15.4616 43.3195 15.0711 42.9289C14.6805 42.5384 14.0474 42.5384 13.6569 42.9289L8 48.5858L2.34315 42.9289C1.95262 42.5384 1.31946 42.5384 0.928934 42.9289C0.53841 43.3195 0.53841 43.9526 0.928934 44.3431L7.2929 50.7071ZM7 4.0625C7 4.61478 7.44772 5.0625 8 5.0625C8.55228 5.0625 9 4.61478 9 4.0625L7 4.0625ZM9 10.1875C9 9.63522 8.55229 9.1875 8 9.1875C7.44772 9.1875 7 9.63522 7 10.1875L9 10.1875ZM7 16.3125C7 16.8648 7.44772 17.3125 8 17.3125C8.55229 17.3125 9 16.8648 9 16.3125L7 16.3125ZM9 22.4375C9 21.8852 8.55229 21.4375 8 21.4375C7.44772 21.4375 7 21.8852 7 22.4375L9 22.4375ZM7 28.5625C7 29.1148 7.44772 29.5625 8 29.5625C8.55229 29.5625 9 29.1148 9 28.5625L7 28.5625ZM9 34.6875C9 34.1352 8.55229 33.6875 8 33.6875C7.44772 33.6875 7 34.1352 7 34.6875L9 34.6875ZM7 40.8125C7 41.3648 7.44772 41.8125 8 41.8125C8.55229 41.8125 9 41.3648 9 40.8125L7 40.8125ZM9 46.9375C9 46.3852 8.55229 45.9375 8 45.9375C7.44772 45.9375 7 46.3852 7 46.9375L9 46.9375ZM7 1L7 4.0625L9 4.0625L9 1L7 1ZM7 10.1875L7 16.3125L9 16.3125L9 10.1875L7 10.1875ZM7 22.4375L7 25.5L9 25.5L9 22.4375L7 22.4375ZM7 25.5L7 28.5625L9 28.5625L9 25.5L7 25.5ZM7 34.6875L7 40.8125L9 40.8125L9 34.6875L7 34.6875ZM7 46.9375L7 50L9 50L9 46.9375L7 46.9375Z" fill="#3D3D3D"/>
</svg>
